<svg width="10" height="10" viewBox="0 0 10 10" fill="none" xmlns="http://www.w3.org/2000/svg">
<g clip-path="url(#clip0_8_5)">
<path opacity="0.99" fill-rule="evenodd" clip-rule="evenodd" d="M9.56056 0.224609C9.44218 0.244658 9.3315 0.286975 9.22853 0.351562C6.29539 1.86046 3.3592 3.36436 0.419937 4.86328C0.363414 4.9201 0.347144 4.98846 0.371109 5.06836C0.558433 5.1832 0.750484 5.29063 0.947281 5.39062C3.7899 6.84773 6.63494 8.29955 9.48244 9.74609C9.65716 9.7357 9.70599 9.64781 9.62892 9.48242C9.01178 7.98582 8.39654 6.48842 7.78322 4.99023C8.39654 3.49205 9.01178 1.99465 9.62892 0.498047C9.68579 0.382723 9.663 0.291576 9.56056 0.224609Z" fill="0"/>
</g>
<defs>
<clipPath id="clip0_8_5">
<rect width="10" height="10" fill="white" transform="matrix(-1 0 0 1 10 0)"/>
</clipPath>
</defs>
</svg>
