<svg width="10" height="10" viewBox="0 0 10 10" fill="none" xmlns="http://www.w3.org/2000/svg">
<g clip-path="url(#clip0_8_2)">
<path opacity="0.99" fill-rule="evenodd" clip-rule="evenodd" d="M0.439437 0.224609C0.557822 0.244658 0.668498 0.286975 0.771469 0.351562C3.70461 1.86046 6.6408 3.36436 9.58006 4.86328C9.63659 4.9201 9.65286 4.98846 9.62889 5.06836C9.44157 5.1832 9.24952 5.29063 9.05272 5.39062C6.2101 6.84773 3.36506 8.29955 0.517562 9.74609C0.342836 9.7357 0.294008 9.64781 0.371078 9.48242C0.988221 7.98582 1.60346 6.48842 2.21678 4.99023C1.60346 3.49205 0.988221 1.99465 0.371078 0.498047C0.314213 0.382723 0.337 0.291576 0.439437 0.224609Z" fill="0"/>
</g>
<defs>
<clipPath id="clip0_8_2">
<rect width="10" height="10" fill="white"/>
</clipPath>
</defs>
</svg>
